<svg width="400" height="100" viewBox="0 0 400 100" fill="none" xmlns="http://www.w3.org/2000/svg">
<g clip-path="url(#clip0_86_307)">
<path d="M127 0C128.65 1.32 130.3 2.64 132 4C132.66 3.67 133.32 3.34 134 3C138.401 6.82181 139.808 9.47371 141 15C142.073 15.0619 143.145 15.1237 144.25 15.1875C148.798 16.1729 149.475 17.2124 152 21C156.258 27.3222 160.835 28.7924 168 31C173.255 32.6412 177.232 33.9244 180 39C179.938 40.1344 179.876 41.2687 179.813 42.4375C179.627 45.9158 179.627 45.9158 181.438 47.6406C182.69 48.6741 183.97 49.6759 185.273 50.6445C187 52 187 52 188.438 54.375C190.08 56.4557 190.08 56.4557 193.938 56.1875C194.637 56.1501 195.337 56.1127 196.059 56.0742C198.199 55.9924 199.97 56.3235 202 57C201.897 56.1337 201.794 55.2675 201.688 54.375C202.023 50.7503 202.908 48.978 205.395 46.3242C210.289 42.2873 216.151 41.4438 222.344 41.6445C229.1 42.5486 236.254 44.9664 241 50C242.489 52.2832 243.74 54.574 245 57C246.733 56.9072 246.733 56.9072 248.5 56.8125C251.854 56.7768 254.187 57.3404 257.25 58.6875C258.487 59.1206 259.725 59.5537 261 60C263.521 58.8643 263.521 58.8643 265 57C264.567 56.1686 264.567 56.1686 264.125 55.3203C263.754 54.5959 263.382 53.8714 263 53.125C262.629 52.4057 262.257 51.6864 261.875 50.9453C261 49 261 49 261 47C260.072 46.9175 259.144 46.835 258.188 46.75C255 46 255 46 253.063 44.375C251.509 40.903 252.104 38.6478 253 35C254.812 30.4176 257.546 28.6787 261.887 26.7266C266.514 25.1357 270.037 25.7012 274.625 27.125C280.072 30.1513 283.009 34.6483 286 40C287.485 39.505 287.485 39.505 289 39C294.858 38.6095 298.74 39.0668 304 42C308.619 46.8624 309.124 50.4161 309 57C309.99 57 310.98 57 312 57C311.897 55.7625 311.794 54.525 311.688 53.25C311.675 49.7249 311.746 49.2678 314.312 46.5625C318.582 44.0801 321.406 43.9791 326.25 44.1875C331.733 44.3193 331.733 44.3193 336.5 42C341.371 38.6036 347.34 39.4138 353 40C355.63 40.6465 358.147 41.444 360.711 42.3125C364.417 43.4257 367.151 43.5403 371 43C373.026 40.6799 373.026 40.6799 374 38C375 37 375 37 378.25 36.6875C382.654 37.0545 383.993 37.8263 387 41C388.936 44.1805 389.959 46.3328 390.188 50.0625C391.166 53.6004 391.955 53.9058 395 55.75C395.722 56.1367 396.444 56.5234 397.188 56.9219C399 58 399 58 400 60C400.125 63.5625 400.125 63.5625 400 67C399.67 67.33 399.34 67.66 399 68C398.886 69.7895 398.779 71.5798 398.71 73.3716C398.084 89.4449 398.084 89.4449 391.688 95.375C386.854 99.4085 381.558 100.25 375.404 100.257C374.085 100.264 372.766 100.27 371.408 100.277C369.951 100.274 368.494 100.271 367.038 100.267C365.485 100.271 363.933 100.276 362.38 100.281C358.116 100.293 353.853 100.293 349.589 100.291C344.99 100.29 340.39 100.301 335.791 100.311C326.782 100.327 317.774 100.333 308.765 100.334C301.445 100.335 294.125 100.339 286.805 100.346C266.059 100.363 245.313 100.372 224.567 100.371C223.448 100.371 222.33 100.371 221.178 100.371C219.498 100.37 219.498 100.37 217.784 100.37C199.624 100.37 181.463 100.389 163.302 100.417C144.662 100.446 126.023 100.459 107.383 100.458C96.9148 100.457 86.4469 100.463 75.9789 100.484C67.0695 100.502 58.1601 100.507 49.2506 100.493C44.7031 100.486 40.1559 100.486 35.6085 100.504C31.4479 100.519 27.2878 100.517 23.1273 100.499C21.62 100.496 20.1126 100.5 18.6054 100.511C16.5605 100.525 14.5155 100.512 12.4706 100.498C11.3336 100.498 10.1965 100.499 9.02502 100.499C5.32647 99.8889 3.66407 98.5848 1.00002 96C-0.193921 93.6121 -0.145601 92.0962 -0.176987 89.4302C-0.189822 88.4822 -0.202657 87.5343 -0.215881 86.5576C-0.223268 85.5306 -0.230655 84.5035 -0.238266 83.4453C-0.246338 82.3922 -0.254409 81.3391 -0.262726 80.2541C-0.276572 78.0231 -0.287292 75.7921 -0.295151 73.561C-0.31238 70.1457 -0.356264 66.7314 -0.400375 63.3164C-0.410501 61.151 -0.419017 58.9857 -0.425766 56.8203C-0.443274 55.7973 -0.460782 54.7743 -0.478821 53.7202C-0.457166 46.657 -0.457166 46.657 1.84474 43.3489C4.79641 41.5016 6.56776 41.5531 10 42C12.7461 43.0586 12.7461 43.0586 15.4375 44.4375C21.4441 47.3169 21.4441 47.3169 28 48C31.7227 46.1628 34.498 43.5152 37.375 40.5625C43.9564 34.1378 51.3093 30.7615 60 28C59.34 26.02 58.68 24.04 58 22C61.3 22 64.6 22 68 22C67.3606 21.0306 66.7213 20.0612 66.0625 19.0625C63.6165 14.8446 63.2179 10.8048 63 6C64.1776 6.5066 64.1776 6.5066 65.3789 7.02344C77.7342 12.5288 77.7342 12.5288 91 13C92.6069 12.2351 94.189 11.4171 95.75 10.5625C103.588 6.58169 112.417 7.178 121.02 7.12598C123.076 7.12423 123.076 7.12423 125 6C125.727 4.02111 126.398 2.02045 127 0Z" fill="#FBCF09"/>
<path d="M130 16C130.495 17.485 130.495 17.485 131 19C130.67 19.66 130.34 20.32 130 21C129.34 21 128.68 21 128 21C128 22.65 128 24.3 128 26C128.392 25.5256 128.784 25.0512 129.188 24.5625C131.479 22.5868 132.989 22.1505 136 22C137 23 138 24 139 25C139.949 25 140.897 25 141.875 25C145.522 25 147.133 25.8076 150 28C150 28.66 150 29.32 150 30C150.58 30.2853 151.16 30.5707 151.757 30.8647C153.834 31.916 155.863 33.0197 157.891 34.164C158.954 34.7634 158.954 34.7634 160.039 35.375C160.769 35.7875 161.498 36.2 162.25 36.625C162.995 37.0452 163.74 37.4654 164.508 37.8984C166.339 38.9314 168.17 39.9656 170 41C170.25 46.625 170.25 46.625 168 50C167.34 50 166.68 50 166 50C165.34 49.01 164.68 48.02 164 47C162.07 46.566 162.07 46.566 159.875 46.5625C154.798 46.1839 151.411 44.486 147 42C148.123 42.9817 149.248 43.9602 150.375 44.9375C151.001 45.4827 151.628 46.028 152.273 46.5898C155.776 49.4503 158.571 49.082 163 49C163.33 50.32 163.66 51.64 164 53C161.771 53.0814 159.542 53.1393 157.312 53.1875C155.45 53.2397 155.45 53.2397 153.551 53.2929C149.783 52.9821 147.972 52.2772 145 50C144.67 49.34 144.34 48.68 144 48C141.679 47.7209 141.679 47.7209 138.938 47.6875C133.215 47.2633 129.311 45.8142 125 42C123 39.1875 123 39.1875 122 37C121.979 37.99 121.959 38.98 121.938 40C121.324 44.4859 118.796 46.7585 115.785 49.9609C111.245 55.1473 109.829 60.2338 109 67C110.555 66.9478 110.555 66.9478 112.141 66.8945C113.51 66.8663 114.88 66.839 116.25 66.8125C116.932 66.7873 117.614 66.7622 118.316 66.7363C121.391 66.6915 123.647 66.8207 126.41 68.2226C128.325 70.3631 128.724 71.8088 129.188 74.625C129.511 77.601 129.511 77.601 131 80C137.214 80.337 142.649 79.3738 148.688 78C168.146 73.8891 168.146 73.8891 176.75 77.8125C180 80 180 80 181 83C178 83 178 83 175 81C166.657 80.068 158.565 81.5583 150.438 83.3125C149.391 83.5258 148.345 83.7391 147.268 83.9589C141.232 85.214 135.342 86.6972 129.457 88.5359C126.624 89.071 124.749 88.836 122 88C120.156 86.0742 120.156 86.0742 118.5 83.6875C115.226 79.2111 112.39 75.7965 107 74C100.686 73.3188 94.6796 74.3269 88.5 75.5C70.5665 78.8426 70.5665 78.8426 62 73C59.5 70.75 59.5 70.75 58 69C57.9188 70.6033 57.8607 72.2078 57.8125 73.8125C57.7777 74.7058 57.7429 75.5991 57.707 76.5195C57.7864 79.0439 57.7864 79.0439 59.3867 80.7617C64.3279 84.5543 71.2083 83.4815 77.0991 82.7334C83.5608 81.7468 89.962 80.5707 96.2656 78.8359C99.7468 78.0566 100.802 78.0003 104 79C103.34 79.8662 102.68 80.7325 102 81.625C99.873 85.2142 99.6121 86.9269 100 91C96.521 89.6084 95.5195 88.3674 94 85C92.903 85.3493 91.806 85.6986 90.6758 86.0586C89.2214 86.5183 87.767 86.978 86.3125 87.4375C85.5913 87.6676 84.87 87.8977 84.127 88.1347C75.3597 90.897 66.6531 92.8399 57.8516 89.1054C53.1767 86.3143 50.3011 82.1068 48.3125 77.125C47.8794 76.0937 47.4462 75.0625 47 74C44.0057 73.0019 41.4332 72.8275 38.3003 72.7097C27.6194 72.3053 16.9332 71.4086 8 65C6.82031 62.8711 6.82031 62.8711 6 61C6.92039 61.3609 7.84078 61.7218 8.78906 62.0937C19.2217 65.9964 29.4082 68.3078 40.3125 64.4375C44.6882 62.4256 48.2617 59.6563 51.9727 56.6171C56.483 53.0193 60.2166 51.3713 66 52C68.375 53 68.375 53 70 54C68.2346 50.9923 66.7928 48.5363 63.875 46.5625C56.5842 45.136 50.2961 46.9002 43.8125 50.2578C43.2144 50.5027 42.6162 50.7476 42 51C41.01 50.505 41.01 50.505 40 50C41.429 49.07 42.8689 48.157 44.3125 47.25C45.113 46.7395 45.9135 46.229 46.7383 45.7031C55.4732 41.1421 63.1272 39.4673 72.9375 39.4375C90.8555 38.9916 101.952 34.1416 116.465 23.7109C120.784 20.7962 125.38 18.398 130 16Z" fill="#FCFBFB"/>
<path d="M130 8.00008C130.433 8.66008 130.866 9.32008 131.312 10.0001C131.869 10.6601 132.426 11.3201 133 12.0001C133.99 12.0001 134.98 12.0001 136 12.0001C137.984 14.9172 137.988 16.1239 137.625 19.7501C137.419 20.8226 137.213 21.8951 137 23.0001C136.092 23.0826 135.185 23.1651 134.25 23.2501C130.599 24.0926 129.366 25.1789 127 28.0001C127.33 25.6901 127.66 23.3801 128 21.0001C128.66 21.0001 129.32 21.0001 130 21.0001C130 19.6801 130 18.3601 130 17.0001C120.69 19.7931 112.243 23.8792 104.062 29.1251C93.6767 35.3631 83.1722 36.5413 71.3098 37.3175C63.4547 37.8411 55.8619 38.3965 49.0625 42.6876C46.8477 44.0743 46.8477 44.0743 45 45.0001C44.34 44.6701 43.68 44.3401 43 44.0001C51.4024 35.9712 60.5522 32.4836 72 31.0001C71.01 30.3401 70.02 29.6801 69 29.0001C67.9813 28.0191 66.9765 27.0231 66 26.0001C67.2581 25.9743 68.5163 25.9485 69.8125 25.922C81.0515 25.5858 91.2303 24.234 102 21.0001C101.194 21.1586 100.389 21.3172 99.5586 21.4806C95.368 22.0923 91.2916 22.2599 87.0625 22.3126C86.2897 22.3416 85.5169 22.3706 84.7207 22.4005C78.148 22.4727 74.0134 20.7219 69.0625 16.2501C68.7119 15.8376 68.3613 15.4251 68 15.0001C68.33 14.3401 68.66 13.6801 69 13.0001C69.4873 13.2888 69.9745 13.5776 70.4766 13.8751C77.4952 17.5503 84.1876 18.0452 92 17.0001C94.7463 15.9426 94.7463 15.9426 97.375 14.5626C104.565 11.0562 112.056 11.3884 119.9 11.3656C121.423 11.3509 121.423 11.3509 122.977 11.336C123.895 11.3417 124.814 11.3473 125.76 11.3531C126.499 11.2366 127.238 11.1201 128 11.0001C128.66 10.0101 129.32 9.02008 130 8.00008Z" fill="#32398D"/>
<path d="M271.074 33.4141C274.364 34.4151 275.315 36.0516 277 39C281 47.8334 281 47.8334 281 51C281.58 50.6391 282.16 50.2782 282.758 49.9063C290.896 45.072 290.896 45.072 296 46C298.812 47.0625 298.812 47.0625 301 49C302.125 52.1875 302.125 52.1875 302 56C300.909 57.6939 300.909 57.6939 299.52 59.4766C296.027 64.8251 296.369 69.9771 296.562 76.1875C296.568 77.2542 296.574 78.3209 296.58 79.42C296.663 84.7293 296.977 87.9427 299 93C293.39 93 287.78 93 282 93C282.33 91.68 282.66 90.36 283 89C283.056 87.1649 283.062 85.328 283.035 83.4922C283.049 63.5194 283.049 63.5194 288.062 57.4375C290.285 55.3086 290.285 55.3086 292 54C289.449 55.5112 286.972 57.0198 284.562 58.75C282 60 282 60 279 60.0625C272.155 57.6381 269.614 50.6273 266.625 44.4883C264.765 41.6405 263.006 40.5184 260 39C262.377 33.5138 265.136 32.437 271.074 33.4141Z" fill="#30388D"/>
<path d="M378 44C381 45 381 45 383 48C383.438 51.375 383.438 51.375 383 55C380.272 58.3018 378.065 60.6481 373.777 61.3789C363.493 62.0438 355.835 57.6895 347 53C347.424 53.4122 347.847 53.8244 348.284 54.2491C354.056 60.6976 353.86 66.8957 353.812 75.25C353.837 77.7553 353.864 80.2605 353.895 82.7657C353.893 83.8668 353.891 84.968 353.89 86.1026C353.909 89.2179 353.909 89.2179 355 93C349.39 93 343.78 93 338 93C338.66 91.68 339.32 90.36 340 89C340.43 84.5318 340.324 80.0493 340.312 75.5625C340.329 74.3347 340.345 73.1069 340.361 71.8418C340.362 70.6578 340.363 69.4738 340.363 68.2539C340.366 67.1744 340.369 66.0949 340.372 64.9827C339.952 61.617 338.841 59.807 337 57C336.5 53.9375 336.5 53.9375 337 51C339.087 48.4422 340.693 47.2291 343.984 46.6524C348.231 46.4792 351.738 47.1367 355.75 48.5C361.722 50.4782 367.762 50.6737 374 50C377.125 48.3653 377.125 48.3653 377.688 45.875C377.791 45.2563 377.894 44.6375 378 44Z" fill="#2E388D"/>
<path d="M330 51C332.562 52.5 332.562 52.5 334 55C334.643 59.9824 334.542 62.0057 332.125 66.4375C330 69 330 69 328 70C328.825 70.6187 329.65 71.2375 330.5 71.875C333.081 74.4413 333.414 76.3993 333.5 80C333.269 84.0839 332.831 86.8855 330 90C323.486 93.8873 317.396 93.7731 310 93C306.099 91.8164 303.718 90.1364 301.5 86.625C300.393 80.8133 302.62 76.1732 305 71C303.68 71 302.36 71 301 71C302.75 66.125 302.75 66.125 305 65C311.997 64.5485 311.997 64.5485 315.5 66.125C317 68 317 68 317.375 71C317 74 317 74 315 77C314.921 79.3319 314.912 81.6683 315 84C316.65 84 318.3 84 320 84C320.33 80.7 320.66 77.4 321 74C320.34 74 319.68 74 319 74C318.812 70.625 318.812 70.625 319 67C319.99 66.34 320.98 65.68 322 65C322.477 62.8674 322.477 62.8674 322.375 60.5C322.383 59.7059 322.39 58.9118 322.398 58.0937C322.201 57.0573 322.201 57.0573 322 56C321.01 55.34 320.02 54.68 319 54C319 53.34 319 52.68 319 52C322.465 50.2673 326.211 50.5356 330 51Z" fill="#2F388D"/>
<path d="M389 60C389.99 60.66 390.98 61.32 392 62C391.837 62.5608 391.674 63.1216 391.507 63.6994C390.968 66.1442 390.89 68.3074 390.895 70.8086C390.88 71.7206 390.865 72.6326 390.85 73.5722C390.825 75.4783 390.82 77.3848 390.834 79.291C390.676 86.0846 390.676 86.0846 388.716 88.7387C383.97 92.8219 379.735 93.1988 373.687 93.3125C372.392 93.3498 371.096 93.3872 369.762 93.4257C365.182 92.9074 362.262 91.2622 359 88C358.639 80.5413 358.639 80.5413 361 77C360.34 76.34 359.68 75.68 359 75C358.331 68.8645 358.331 68.8645 360.5 66.0625C364.048 64.5546 367.206 64.2769 371 65C373.5 66.875 373.5 66.875 375 69C375 69.66 375 70.32 375 71C373.68 71.33 372.36 71.66 371 72C371 72.66 371 73.32 371 74C372.32 74.33 373.64 74.66 375 75C375 76.65 375 78.3 375 80C373.02 80.99 373.02 80.99 371 82C371 82.66 371 83.32 371 84C372.98 84 374.96 84 377 84C377.014 82.6864 377.028 81.3729 377.043 80.0195C377.09 78.2838 377.138 76.5481 377.187 74.8125C377.193 73.9481 377.199 73.0838 377.205 72.1933C377.36 67.6925 377.55 65.5895 380.355 61.914C383.559 59.5951 385.126 59.4105 389 60Z" fill="#2E378D"/>
<path d="M249.875 64.6875C251.201 64.6314 251.201 64.6314 252.555 64.5742C255 65 255 65 256.809 66.5976C258.39 69.7866 258.294 72.2082 258.188 75.75C258.16 76.9204 258.133 78.0909 258.105 79.2969C258.071 80.1889 258.036 81.0809 258 82C259.32 82 260.64 82 262 82C262.037 81.1079 262.075 80.2159 262.113 79.2969C262.179 78.1264 262.245 76.9559 262.312 75.75C262.371 74.5898 262.429 73.4297 262.488 72.2344C263.026 68.8372 263.486 67.3221 266 65C268.156 64.5039 268.156 64.5039 270.5 64.5625C271.273 64.5638 272.047 64.5651 272.844 64.5664C275.433 65.087 276.342 65.9964 278 68C277.34 68.66 276.68 69.32 276 70C275.8 72.9759 275.722 75.8382 275.75 78.8125C275.742 79.6201 275.735 80.4277 275.727 81.2597C275.73 82.4402 275.73 82.4402 275.734 83.6445C275.737 84.3597 275.739 85.0749 275.741 85.8117C275.969 88.5503 275.969 88.5503 278 93C273.38 93 268.76 93 264 93C263.67 91.68 263.34 90.36 263 89C262.595 89.4756 262.19 89.9513 261.773 90.4414C258.689 93.1518 254.992 93.2521 251 93C248.079 91.2349 246.521 90.0415 245 87C244.928 84.2824 244.907 81.5914 244.938 78.875C244.942 78.1209 244.947 77.3668 244.951 76.5898C244.963 74.7265 244.981 72.8632 245 71C244.34 70.67 243.68 70.34 243 70C244.11 65.0839 244.819 64.8267 249.875 64.6875Z" fill="#2F388D"/>
<path d="M217 63.9999C219.51 66.0724 220.57 67.9527 221.605 71.0116C221.997 72.1476 221.997 72.1476 222.396 73.3066C222.658 74.0922 222.919 74.8779 223.187 75.6874C223.46 76.4847 223.733 77.282 224.014 78.1034C224.684 80.0663 225.343 82.0328 226 83.9999C227.811 82.1888 227.382 79.3871 227.562 76.9374C227.646 75.8327 227.73 74.728 227.816 73.5898C227.907 72.3078 227.907 72.3078 228 70.9999C226.68 70.9999 225.36 70.9999 224 70.9999C224.573 68.1327 224.861 67.1385 227 64.9999C229.059 64.6991 229.059 64.6991 231.437 64.6874C232.611 64.6623 232.611 64.6623 233.809 64.6366C236 64.9999 236 64.9999 237.762 66.0273C239.708 69.1271 239.432 72.3326 239.375 75.8749C239.387 76.5826 239.398 77.2903 239.41 78.0195C239.385 82.5274 238.771 85.4248 236 88.9999C231.313 92.365 227.436 93.1372 221.75 93.0624C220.858 93.0534 219.966 93.0444 219.047 93.0351C218.371 93.0235 217.696 93.0119 217 92.9999C216.738 92.2886 216.476 91.5773 216.206 90.8444C215.016 87.6239 213.821 84.4057 212.625 81.1874C212.212 80.0679 211.8 78.9483 211.375 77.7948C210.975 76.7217 210.576 75.6486 210.164 74.5429C209.797 73.5531 209.431 72.5634 209.053 71.5436C208.025 68.8265 208.025 68.8265 206 65.9999C209.997 63.0607 212.223 62.5459 217 63.9999Z" fill="#2F388D"/>
<path d="M57 68.0001C57.7792 68.615 57.7792 68.615 58.5742 69.2423C65.8494 74.8634 70.7658 76.7926 80 76.0001C82.8448 75.5598 85.6714 75.0336 88.5 74.5001C105.933 71.2299 105.933 71.2299 113 76.0001C113.66 76.9901 114.32 77.9801 115 79.0001C114.408 79.303 113.817 79.6059 113.207 79.9181C108.354 82.4908 104.704 84.9595 101 89.0001C100.01 89.4951 100.01 89.4951 99 90.0001C99.4493 85.327 100.019 82.6123 103 79.0001C102.403 79.1097 101.806 79.2192 101.191 79.3321C99.3053 79.6768 97.4185 80.0175 95.5312 80.3556C92.985 80.8203 90.4458 81.3025 87.9062 81.8009C66.7137 85.8779 66.7137 85.8779 60.2344 82.6016C58 81.0001 58 81.0001 57 79.0001C56.9297 77.1263 56.9157 75.2501 56.9375 73.3751C56.9465 72.3722 56.9555 71.3693 56.9648 70.336C56.9764 69.5652 56.988 68.7943 57 68.0001Z" fill="#2C368F"/>
<path d="M126.312 62.9999C127.051 63.0205 127.79 63.0412 128.551 63.0624C131.458 64.175 131.717 65.0114 133.371 67.5468C135.573 70.2842 136.608 70.9341 140.128 71.5253C144.016 71.5812 147.87 71.4665 151.75 71.2499C171.907 70.3283 171.907 70.3283 179.688 75.9374C181 77.9999 181 77.9999 180.75 80.2499C180.379 81.1162 180.379 81.1162 180 81.9999C179.412 81.3193 179.412 81.3193 178.812 80.6249C174.197 76.4871 168.91 76.5967 163.016 76.664C157.305 77.0059 151.722 78.3087 146.156 79.5766C140.974 80.7331 136.316 81.3775 131 80.9999C128.283 78.2829 128.279 75.7957 127.66 72.0937C127.124 69.6298 127.124 69.6298 124 67.9999C121.951 67.5485 121.951 67.5485 119.812 67.3749C118.554 67.2512 117.296 67.1274 116 66.9999C119.114 63.5898 121.737 62.7471 126.312 62.9999Z" fill="#30398F"/>
<path d="M200 64C202.154 65.837 202.921 67.2933 203.234 70.1077C203.296 72.6619 203.261 75.1963 203.188 77.7501C203.174 78.6382 203.16 79.5264 203.146 80.4415C203.111 82.6283 203.062 84.8139 203 87.0001C204.32 87.0001 205.64 87.0001 207 87.0001C206.688 88.8751 206.688 88.8751 206 91.0001C202.786 93.143 200.826 93.3003 197.035 93.461C193.834 92.736 192.865 91.7215 191 89.0001C190.416 85.6509 190.394 82.3313 190.375 78.9376C190.349 77.134 190.316 75.3306 190.273 73.5274C190.267 72.7307 190.262 71.934 190.255 71.1131C190.125 68.6986 190.125 68.6986 188 66C192.24 62.788 194.891 62.5808 200 64Z" fill="#2D378D"/>
<path d="M66.9375 48.7499C69 49.9999 69 49.9999 69.8125 52.1249C69.8744 52.7437 69.9362 53.3624 70 53.9999C68.68 53.6699 67.36 53.3399 66 52.9999C66 52.3399 66 51.6799 66 50.9999C58.1793 51.5827 52.2957 54.7704 45.7109 58.7243C37.534 63.6137 30.5344 64.9095 21 63.9999C15.5909 62.6376 10.1112 60.9135 6.00001 56.9999C5.47201 54.2385 5.81402 51.8363 6.00001 48.9999C10.0367 50.9342 13.768 53.2943 17.5625 55.6601C19.808 56.8944 21.5011 57.5501 24 57.9999C24.6652 58.125 25.3303 58.25 26.0156 58.3788C33.8823 59.0252 39.5726 55.592 46.2656 51.9452C53.1536 48.2384 59.2292 46.7818 66.9375 48.7499Z" fill="#373A8B"/>
<path d="M127 19C126.152 19.4731 125.304 19.9462 124.43 20.4336C118.035 24.031 111.797 27.7475 105.688 31.8125C100.673 35.1172 95.8926 37.688 90 39C88.8651 39.2567 88.8651 39.2567 87.7073 39.5186C84.9862 40.0025 82.4799 40.1258 79.7188 40.1407C63.1554 40.4007 52.0289 42.7847 38 52C40.1675 45.4757 44.4427 43.7937 50.3164 40.8321C57.1616 37.6237 63.558 36.9241 71.0452 36.4058C85.7336 35.3433 97.2079 32.4967 109.82 24.9024C122.303 17.4343 122.303 17.4343 127 19Z" fill="#E83748"/>
<path d="M122 35C124 38 124 38 125.25 40.5C127.54 43.7717 129.242 44.6334 133 46C136.327 46.5122 139.641 46.8075 143 47C140.228 49.7722 137.811 50.1394 134 51C132.721 50.9175 131.443 50.835 130.125 50.75C124.678 50.6236 121.006 53.5748 117 57C115 59.0864 113.13 61.2142 111.313 63.4609C110.879 63.9688 110.446 64.4767 110 65C109.67 65 109.34 65 109 65C109.142 57.3552 112.244 52.8464 117 47C117.545 46.505 118.091 46.01 118.652 45.5C120.419 43.5332 120.702 41.8913 121.188 39.3125C121.346 38.5043 121.505 37.696 121.668 36.8633C121.778 36.2484 121.887 35.6335 122 35Z" fill="#353A8D"/>
<path d="M230.945 51.7148C234.109 53.6932 235.89 55.9368 238 58.9999C238 59.3299 238 59.6599 238 59.9999C234.031 60.0246 230.061 60.0427 226.092 60.0548C224.741 60.0599 223.39 60.0667 222.038 60.0753C220.1 60.0874 218.161 60.0926 216.223 60.0976C214.471 60.1054 214.471 60.1054 212.684 60.1134C210 59.9999 210 59.9999 209 58.9999C208.687 56.1249 208.687 56.1249 209 52.9999C215.227 46.7727 223.734 48.2337 230.945 51.7148Z" fill="#2F388D"/>
<path d="M152 30C152.713 30.2888 153.426 30.5775 154.16 30.875C159.916 33.1551 165.742 35.2603 171.625 37.1875C174 38 174 38 175 39C174.58 44.2526 173.556 48.4354 171 53C168.563 54.1875 168.563 54.1875 166 54C164.667 52.6667 163.333 51.3333 162 50C161.051 50 160.103 50 159.125 50C154.936 50 153.228 48.5962 150 46C147.625 43.25 147.625 43.25 146 41C148.851 42.123 151.612 43.2945 154.375 44.625C158.195 46.0741 160.953 46.2478 165 46C165.33 47.32 165.66 48.64 166 50C167.625 48.8789 167.625 48.8789 169 47C169.06 45.0009 169.065 42.9989 169 41C167.94 40.4573 166.881 39.9146 165.789 39.3555C164.401 38.6332 163.013 37.9105 161.625 37.1875C160.926 36.8311 160.228 36.4746 159.508 36.1074C158.838 35.7562 158.167 35.4049 157.477 35.043C156.55 34.5638 156.55 34.5638 155.604 34.075C154 33 154 33 152 30Z" fill="#373F91"/>
<path d="M66 51C66 51.33 66 51.66 66 52C64.2675 52.3403 64.2675 52.3403 62.5 52.6875C56.7816 54.1247 52.4962 57.2692 47.707 60.5899C46.9375 61.1171 46.1679 61.6443 45.375 62.1875C44.6815 62.6761 43.988 63.1646 43.2734 63.668C35.4616 68.245 26.1638 68.2314 17.5273 66.1719C13.3114 64.799 9.69894 63.466 6 61C6 59.68 6 58.36 6 57C6.55816 57.2862 7.11633 57.5724 7.69141 57.8672C17.2686 62.5666 26.5872 65.1667 37.1406 62.082C43.0903 59.7251 48.5509 56.6688 53.9414 53.2344C57.9831 50.8109 61.3859 50.913 66 51Z" fill="#E73B4C"/>
<path d="M122 44C122.33 44.99 122.66 45.98 123 47C122.319 47.4538 121.639 47.9075 120.938 48.375C117.461 51.4819 115.133 54.8987 112.551 58.7579C111 61 111 61 109 63C109.501 58.362 110.62 55.562 113.375 51.8125C113.981 50.9734 114.587 50.1342 115.211 49.2696C119.365 44 119.365 44 122 44Z" fill="#E53A4D"/>
<path d="M48 41.9999C48.66 42.3299 49.32 42.6599 50 42.9999C46.5301 46.9036 42.4478 49.3658 38 51.9999C38.9287 47.937 40.6173 46.3126 44 44.1249C46.125 42.8202 46.125 42.8202 48 41.9999Z" fill="#DC4051"/>
<path d="M52 43.0001C54 44.0001 54 44.0001 55 46.0001C53.2509 46.6484 51.5007 47.2937 49.75 47.9376C48.2882 48.4771 48.2882 48.4771 46.7969 49.0274C44.5354 49.8139 42.332 50.4726 40 51.0001C43.2873 47.1649 47.2515 44.6754 52 43.0001Z" fill="#FDEDDC"/>
<path d="M140 21.9999C142.31 22.3299 144.62 22.6599 147 22.9999C147 23.9899 147 24.9799 147 25.9999C143.7 25.9999 140.4 25.9999 137 25.9999C137.99 24.6799 138.98 23.3599 140 21.9999Z" fill="#373F90"/>
<path d="M139 28.0001C140.65 28.0001 142.3 28.0001 144 28.0001C144 29.3201 144 30.6401 144 32.0001C142.68 32.0001 141.36 32.0001 140 32.0001C139.67 30.6801 139.34 29.3601 139 28.0001Z" fill="#313A91"/>
</g>
<defs>
<clipPath id="clip0_86_307">
<rect width="400" height="100" fill="white"/>
</clipPath>
</defs>
</svg>
