<svg width="369" height="369" viewBox="0 0 369 369" fill="none" xmlns="http://www.w3.org/2000/svg">
<g clip-path="url(#clip0_7_2)">
<path d="M-57 0H427V369H-57V0Z" fill="#FFD205"/>
<path d="M172.933 97.5876C177.881 99.4767 180.873 101.825 186.82 103.456C201.551 107.497 205.143 99.3528 217.717 97.1164C224.499 95.9102 237.837 98.7459 244.467 95.9292C245.944 95.3016 246.625 93.4531 247.015 92C248.915 94.9394 249.239 95.9915 250.262 99.2783C250.966 97.8676 251.476 96.7082 252.077 95.2656C255.584 101.416 257.296 104.463 253.942 111.303C254.528 111.286 255.32 111.296 255.875 111.166C260.068 107.289 267.195 106.969 267.188 114.1C268.036 114.557 269.01 115.617 269.727 116.325C274.957 118.71 279.42 121.611 285.089 123.535C288.691 125.049 294.191 125.606 297.584 127.133C302.565 129.377 297.659 136.419 296.935 140.156C296.186 144.013 293.825 146.194 289.845 146.275C287.353 146.294 286.457 145.583 284.449 144.203C277.941 145.72 270.819 146.72 265.521 141.628C264.375 140.527 263.716 139.153 262.41 138.097C257.452 141.766 249.014 143.392 243.095 141.39C236.589 144.513 230.812 149.334 226.029 154.724C224.944 155.948 222.367 159.648 221.243 160.381C222.397 162.198 227.894 161.582 229.851 161.175C239.781 153.664 249.842 156.263 254.755 167.719C266.801 165.45 292.172 164.902 303.389 171.178C305.9 172.584 308.172 176.807 306.555 179.63C306.423 180.523 305.922 181.206 305.442 181.959C303.695 179.178 299.699 176.724 296.413 176.679C281.357 176.465 265.531 181.513 250.988 184.833C240.766 187.167 239.869 190.069 233.303 180.076C232.413 178.721 230.42 176.567 229.307 175.146C223.728 177.779 217.861 180.594 213.635 185.306C212.413 186.671 211.695 189.165 210.811 190.061C207.164 188.238 206.053 185.53 205.875 181.579C191.804 187.375 164.796 196.68 154.001 180.16C152.224 177.441 151.805 174.083 150.36 171.295C147.655 166.079 139.76 168.051 134.969 167.614C124.916 166.871 113.913 166.014 105.226 160.389C103.444 159.235 101.233 156.931 100.852 154.792C100.727 153.201 100.841 151.068 100.906 149.452C100.71 147.668 100.237 141.148 101.762 140.267C103.274 140.444 105.001 142.779 106.172 143.861C116.402 153.348 131.108 154.982 142.993 147.512C149.717 143.285 156.115 139.354 164.309 139.357C169.607 139.36 171.986 141.193 175.497 144.73C175.47 144.569 175.442 144.407 175.415 144.246C169.964 131.561 154.508 135.998 144.95 140.611C143.06 141.523 140.613 143.157 138.912 143.545C138.49 143.84 138.256 144.082 137.752 144.081C137.632 143.233 139.995 139.962 140.671 139.334C147.296 129.257 161.355 121.977 173.057 120.449C175.746 120.099 183.315 119.325 185.376 118.465L185.664 118.343C180.56 118.22 174.065 116.996 170.335 113.243C180.172 114.572 193.328 113.328 202.966 111.217C206.736 110.391 217.435 107.065 220.603 105.21C216.598 105.53 213.081 106.755 209.159 107.614C198.719 109.902 185.487 111.02 176.933 103.292C175.084 101.621 174.028 99.7709 172.933 97.5876Z" fill="#FEFEFE"/>
<path d="M172.933 97.5876C177.881 99.4767 180.873 101.825 186.82 103.456C201.551 107.497 205.143 99.3528 217.717 97.1164C224.499 95.9102 237.837 98.7459 244.467 95.9292C245.944 95.3016 246.625 93.4531 247.015 92C248.915 94.9394 249.239 95.9915 250.262 99.2783C250.966 97.8676 251.476 96.7082 252.077 95.2656C255.584 101.416 257.296 104.463 253.942 111.303C253.773 111.451 253.826 111.385 253.511 111.407C253.235 110.671 253.107 109.424 252.989 108.598C250.53 109.686 247.903 110.101 245.826 111.923C244.75 112.869 244.602 115.609 244.097 115.958C243.41 115.658 242.774 114.173 242.654 113.44C241.706 107.705 248.684 107.747 247.423 101.891L247.368 101.641C246.584 101.435 242.969 103.297 241.883 103.722C238.454 105.063 234.825 106.168 231.46 107.622C229.855 108.322 228.294 109.121 226.789 110.014C218.299 114.969 212.888 119.314 203.233 122.698C186.357 128.614 168.96 123.368 152.868 131.081C150 132.487 147.28 134.175 144.746 136.12C143.893 136.782 141.365 138.908 140.671 139.334C147.296 129.257 161.355 121.977 173.057 120.449C175.746 120.099 183.315 119.325 185.376 118.465L185.664 118.343C180.56 118.22 174.065 116.996 170.335 113.243C180.172 114.572 193.328 113.328 202.966 111.217C206.736 110.391 217.435 107.065 220.603 105.21C216.598 105.53 213.08 106.755 209.159 107.614C198.719 109.902 185.486 111.02 176.933 103.292C175.084 101.621 174.028 99.7709 172.933 97.5876Z" fill="#29348F"/>
<path d="M216.899 174.068C201.236 178.18 186.108 181.927 169.787 181.595C158.068 181.356 158.984 164.446 161.047 162.916C162.238 162.969 163.425 164.695 164.246 165.577C165.543 166.994 167.003 168.253 168.596 169.326C171.396 171.178 174.566 172.398 177.884 172.902C189.614 174.729 207.87 166.382 219.866 169.11C222.945 169.811 227.693 172.414 229.307 175.146C223.728 177.779 217.861 180.594 213.635 185.306C212.413 186.671 211.695 189.165 210.811 190.061C208.056 184.362 212.689 177.65 216.899 174.068Z" fill="#29348F"/>
<path d="M229.851 161.175C239.781 153.664 249.842 156.263 254.755 167.719C266.801 165.45 292.172 164.902 303.389 171.178C305.9 172.584 308.172 176.807 306.555 179.63C305.806 178.579 304.834 176.879 303.743 176.137C294.807 170.071 278.313 173.36 268.501 175.269C262.757 176.386 257.305 178.269 251.471 178.597C249.455 178.711 248.297 178.286 246.659 177.344C243.448 172.503 246.649 165.039 240.306 162.414C236.637 160.897 233.687 161.107 229.851 161.175Z" fill="#29348F"/>
<path d="M100.906 149.452C100.71 147.668 100.237 141.148 101.762 140.267C103.274 140.444 105.001 142.779 106.172 143.861C116.402 153.348 131.108 154.982 142.993 147.512C149.717 143.285 156.115 139.354 164.309 139.357C169.607 139.36 171.986 141.193 175.497 144.73L175.498 144.968C174.576 145.146 173.888 144.621 173.026 144.281C162.052 139.953 153.267 148.378 144.36 153.472C132.032 160.521 114.641 159.577 103.179 151.147C102.409 150.581 101.691 149.991 100.906 149.452Z" fill="#29348F"/>
<path d="M140.671 139.335C141.365 138.908 143.893 136.782 144.746 136.12C147.28 134.175 150.001 132.487 152.868 131.081C168.96 123.368 186.357 128.614 203.233 122.698C212.888 119.314 218.3 114.97 226.789 110.014C228.294 109.121 229.855 108.322 231.46 107.622C234.826 106.168 238.454 105.064 241.883 103.722C242.969 103.297 246.584 101.435 247.368 101.641C243.658 105.048 234.239 108.845 229.551 111.964C222.061 116.946 213.796 123.897 205.361 126.812C197.13 129.566 188.563 129.684 179.989 129.544C176.851 129.493 173.031 129.339 169.97 129.731C159.362 131.086 147.018 136.707 138.912 143.545C138.49 143.84 138.256 144.082 137.752 144.081C137.632 143.233 139.995 139.962 140.671 139.335Z" fill="#F03644"/>
<path d="M236.174 133.97C234.862 130.045 235.421 128.012 237.236 124.381L237.563 123.735C242.052 137.171 249.511 138.171 262.41 138.097C257.453 141.766 249.014 143.392 243.095 141.39C236.589 144.513 230.812 149.334 226.029 154.724C224.944 155.948 222.367 159.648 221.243 160.381L221.536 158.602C221.596 157.822 221.692 157.045 221.819 156.273C223.202 148.339 229.703 138.563 236.174 133.97Z" fill="#29348F"/>
<path d="M236.174 133.97C236.718 134.971 237.454 136.424 238.088 137.322C233.034 141.804 228.506 146.306 225.025 152.123C224.081 153.699 222.66 157.679 221.536 158.602C221.596 157.822 221.692 157.045 221.819 156.273C223.202 148.339 229.703 138.563 236.174 133.97Z" fill="#F03644"/>
<path d="M269.727 116.325C274.957 118.71 279.42 121.611 285.089 123.535C288.691 125.049 294.191 125.606 297.584 127.133C302.565 129.377 297.659 136.419 296.935 140.156C296.186 144.013 293.825 146.194 289.845 146.275L289.704 146.218C286.784 145.024 286.328 143.441 285.211 140.73C275.828 143.888 270.142 136.756 264.804 130.327C270.969 133.945 280.82 140.25 287.991 136.673C288.278 138.2 288.437 141.127 290.074 141.515C291.104 141.144 291.314 140.714 291.922 139.928C294.493 136.595 292.209 134.652 294.041 131.306L294.187 131.043C292.57 130.578 289.755 129.066 288.152 128.288C281.364 124.988 275.173 121.682 269.727 116.325Z" fill="#29348F"/>
<path d="M100.906 149.452C101.691 149.991 102.409 150.581 103.179 151.147C114.641 159.577 132.032 160.521 144.36 153.472C153.267 148.378 162.052 139.953 173.026 144.281C173.888 144.621 174.576 145.146 175.498 144.968C176.037 145.873 176.349 146.457 176.792 147.412C174.722 146.21 173.139 145.144 170.71 144.692C161.622 143 155.214 149.447 148.817 154.58C138.291 163.027 122.92 163.07 110.615 159.079C106.872 157.876 104.225 156.231 100.852 154.792C100.727 153.201 100.841 151.068 100.906 149.452Z" fill="#F03644"/>
<path d="M255.875 111.166C260.068 107.289 267.195 106.969 267.188 114.1C266.206 114.209 266.015 113.483 264.821 113.024C261.164 111.619 258.264 112.368 254.873 113.639C255.192 112.809 255.526 111.985 255.875 111.166Z" fill="#29348F"/>
<path d="M258.861 114.989C259.557 114.945 260.22 114.924 260.918 114.944C263.476 115.018 265.364 118.109 263.267 120.074C262.213 121.06 261.19 120.979 259.863 120.949C257.099 119.376 258.585 117.2 258.251 116.486C257.632 116.488 256.791 117.137 256.222 117.497L256.282 117.237L256.429 117.381L256.457 116.998C257.142 115.919 257.754 115.655 258.861 114.989Z" fill="#29348F"/>
<path d="M150.647 191.665C163.996 189.787 166.296 204.283 170.215 213.361C170.929 215.016 171.749 216.653 172.548 218.27C174.983 216.02 177.288 214.349 180.127 212.565C187.623 207.854 200.598 209.601 201.157 220.229C201.574 228.156 193.067 231.566 193.104 239.667C193.078 244.913 192.947 250.177 193.042 255.423C193.194 263.894 191.89 269.047 196.253 276.809C190.383 276.736 184.384 276.796 178.504 276.794L172.14 276.826C173.276 275.109 174.131 273.561 174.678 271.56C177.288 262.008 173.142 241.877 177.063 234.179C179.449 229.494 183.279 228.211 186.085 224.508C186.617 223.807 186.957 223.153 186.821 222.252C184.653 218.139 178.958 225.695 176.879 227.026C175.201 228.1 174.349 228.843 172.322 229.393C170.372 229.919 168.306 229.818 166.416 229.105C153.693 224.389 154.036 196.655 139.979 200.718C142.084 195.043 144.509 192.421 150.647 191.665Z" fill="#29348F"/>
<path d="M311.984 206.707C315.576 209.506 318.04 212.711 318.119 217.435C318.181 220.944 316.82 224.33 314.343 226.818C311.387 229.818 307.328 231.25 303.203 231.631C296.205 232.278 289.732 230.525 283.438 227.58C280.435 226.175 270.742 220.129 268.015 220.238C267.154 220.272 266.602 220.442 266.019 221.08C265.919 221.607 265.923 222.307 266.315 222.618C269.853 225.42 273.602 227.418 274.509 232.339C274.982 234.901 274.824 238.115 274.818 240.972L274.788 257.645C274.775 265.196 273.996 270.001 277.988 276.809L270.855 276.792C265.2 276.762 259.544 276.777 253.888 276.835C255.145 275.034 256.089 273.041 256.583 270.896C257.258 267.974 257.433 235.994 256.78 233.242C256.174 230.694 254.209 228.506 252.876 226.299C251.593 224.176 251 221.888 251.6 219.438C252.293 216.601 254.246 214.314 256.742 212.865C265.872 207.567 277.71 213.692 286.829 216.12C292.996 217.762 300.495 218.871 306.268 215.457C309.768 213.388 311.034 210.476 311.984 206.707Z" fill="#29348F"/>
<path d="M234.363 216.497C244.444 215.017 249.558 223.886 247.051 232.822C245.366 238.83 242.239 241.993 237.015 245.08C240.828 246.424 243.874 248.293 245.34 252.287C246.347 254.709 245.993 257.155 246.105 259.621C246.576 270.166 240.085 275.891 229.904 277.434C219.637 278.988 203.004 277.605 200.816 264.757C200.116 260.64 201.101 256.59 203.576 253.274C204.974 251.609 208.3 249.153 205.447 246.488C204.025 245.163 202.426 245.069 200.538 245.14C201.703 234.613 217.824 233.747 222.258 241.862C225.516 247.826 219.248 252.878 218.533 258.712C217.938 263.552 219.734 267.717 225.413 266.251C229.761 264.616 228.5 257.872 228.68 254.203C228.823 251.277 228.343 250.132 225.835 249.147C225.852 246.334 225.832 243.519 225.781 240.707C235.468 236.227 234.335 224.547 225.231 219.969C228.519 217.586 230.448 216.994 234.363 216.497Z" fill="#29348F"/>
<path d="M321.812 229.987C326.361 229.7 329.677 231.484 332.734 234.642C330.612 235.823 329.673 236.418 329.05 239.003C328.525 241.183 328.825 243.316 328.743 245.508C328.495 252.251 329.467 259.347 328.18 265.977C327.228 269.755 324.278 272.909 320.939 274.685C317.396 276.546 313.251 277.485 309.225 277.766C300.827 278.354 288.655 277.58 283.978 269.421C282.627 267.067 282.359 263.577 283.151 261.028C284.023 258.23 286.298 256.746 288.766 255.49C286.249 254.332 285.112 253.49 283.689 251.157C277.427 235.945 304.273 230.296 306.292 245.172C304.443 245.056 302.668 244.84 301.047 245.9C299.577 246.861 299.337 248.614 300.512 249.898C301.996 251.519 304.22 251.517 306.239 251.656V259.412C303.436 259.619 296.556 260.687 301.306 265.425C303.385 267.499 309.728 266.91 310.698 263.586C311.338 261.387 311.233 259.887 311.231 257.416L311.211 245.756C311.201 236.891 311.243 231.125 321.812 229.987Z" fill="#29348F"/>
<path d="M124.969 236.409C128.122 235.927 132.585 236.696 134.97 238.942C140.314 243.973 136.098 252.611 136.543 258.913C136.734 261.614 137.554 264.14 140.843 263.8C146.082 263.359 145.735 257.014 145.55 253.122C145.168 245.09 145.496 236.848 155.679 236.323C160.854 236.056 163.247 237.376 167.059 240.784C165.27 241.856 163.58 242.845 163.259 245.14C162.911 247.625 163.033 250.239 163.036 252.752L163.059 265.583C163.017 270.258 163.816 272.896 166.273 276.822C160.104 276.638 152.914 276.792 146.672 276.79C146.661 274.45 146.638 272.322 146.811 269.989C146.098 270.804 145.313 271.676 144.54 272.427C141.342 275.58 137.001 277.301 132.51 277.194C123.87 277.055 119.045 271.526 119.324 263.025C119.483 258.183 121.215 253.709 121.467 248.894C121.563 247.066 120.913 246.43 119.727 245.206C118.096 244.992 117.469 244.971 115.823 245.041C116.235 239.535 119.636 236.926 124.969 236.409Z" fill="#29348F"/>
<path d="M71.4562 234.883C82.9855 234.076 83.6354 241.635 86.4531 250.77L91.2926 266.367C95.7308 262.492 95.118 259.354 95.0957 253.822C95.0865 251.532 95.0805 249.254 94.9379 246.961C94.1086 245.97 93.9641 245.823 92.887 245.116C91.7143 245.028 90.4506 245.018 89.2673 244.986C89.5406 242.74 89.9622 241.006 91.6094 239.354C95.7291 235.221 104.624 235.151 108.771 239.268C111.586 242.064 111.258 245.352 111.241 248.974C111.274 256.689 112.127 265.45 106.245 271.354C99.6006 278.025 88.2299 276.817 79.3283 276.811C78.2573 272.831 74.8573 264.461 73.2796 260.186L69.2414 249.254C67.8232 245.418 67.1363 241.663 63.4464 239.524C66.3173 236.694 67.5482 235.78 71.4562 234.883Z" fill="#29348F"/>
<path d="M45.9662 234.89C46.2713 234.872 46.5765 234.856 46.8818 234.842C51.0142 234.657 55.0457 235.61 57.3148 239.417C58.6453 241.65 58.6787 243.675 58.6752 246.195C58.6669 252.493 58.6033 258.801 58.5618 265.101C58.5543 266.183 58.9794 267.61 59.8562 268.295C61.2851 269.46 63.0202 269.34 64.7468 269.184C63.2456 274.897 61.5581 276.839 55.4661 277.8C52.682 278.078 49.6435 277.971 47.0558 276.807C40.4715 273.84 41.1259 265.838 41.1411 259.805L41.1831 249.425C41.1964 244.812 41.8217 241.537 37 239.504C40.1633 236.922 41.8446 235.648 45.9662 234.89Z" fill="#29348F"/>
<path d="M81.636 214.367C85.9467 214.049 92.4499 215.279 96.4163 217C103.222 219.953 107.306 224.243 110.038 231.024C105.174 229.826 101.929 229.054 96.9575 228.679C86.965 227.609 78.945 228.321 69.0799 230.01C68.3294 228.386 67.6122 226.64 67.4474 224.842C67.2365 222.696 67.9218 220.557 69.3408 218.933C72.2404 215.556 77.4135 214.702 81.636 214.367Z" fill="#29348F"/>
</g>
<defs>
<clipPath id="clip0_7_2">
<rect width="369" height="369" fill="white"/>
</clipPath>
</defs>
</svg>
